<svg width="48" height="48" viewBox="0 0 48 48" fill="none" xmlns="http://www.w3.org/2000/svg">
<path fill-rule="evenodd" clip-rule="evenodd" d="M24 6C14.0589 6 6 14.0589 6 24C6 33.9411 14.0589 42 24 42C33.9411 42 42 33.9411 42 24C42 14.0589 33.9411 6 24 6ZM4 24C4 12.9543 12.9543 4 24 4C35.0457 4 44 12.9543 44 24C44 35.0457 35.0457 44 24 44C12.9543 44 4 35.0457 4 24Z" fill="black"/>
<path fill-rule="evenodd" clip-rule="evenodd" d="M29.5 12V6.5H31.5V12C31.5 13.6569 30.1569 15 28.5 15H23.5V17.5C23.5 19.1569 22.1569 20.5 20.5 20.5H18V22.5H28.5C30.1569 22.5 31.5 23.8431 31.5 25.5V32H33.5C35.1569 32 36.5 33.3431 36.5 35V39H34.5V35C34.5 34.4477 34.0523 34 33.5 34H29.5V25.5C29.5 24.9477 29.0523 24.5 28.5 24.5H16V18.5H20.5C21.0523 18.5 21.5 18.0523 21.5 17.5V13H28.5C29.0523 13 29.5 12.5523 29.5 12Z" fill="black"/>
<path fill-rule="evenodd" clip-rule="evenodd" d="M15.5 28.9007L5.27664 18.1905L6.72335 16.8096L17.5 28.0994V32.5C17.5 34.1569 18.8431 35.5 20.5 35.5H23.5V43.5H21.5V37.5H20.5C17.7386 37.5 15.5 35.2615 15.5 32.5V28.9007Z" fill="black"/>
</svg>
