<svg width="48" height="48" viewBox="0 0 48 48" fill="none" xmlns="http://www.w3.org/2000/svg">
<path fill-rule="evenodd" clip-rule="evenodd" d="M24 6C14.0589 6 6 14.0589 6 24C6 33.9411 14.0589 42 24 42C33.9411 42 42 33.9411 42 24C42 14.0589 33.9411 6 24 6ZM4 24C4 12.9543 12.9543 4 24 4C35.0457 4 44 12.9543 44 24C44 35.0457 35.0457 44 24 44C12.9543 44 4 35.0457 4 24Z" fill="black"/>
<path fill-rule="evenodd" clip-rule="evenodd" d="M27.7135 13.7763C26.2786 10.7288 24.2182 8.01741 21.6664 5.81858L22.972 4.30347C25.7364 6.68553 27.9685 9.62284 29.523 12.9244C31.0775 16.2259 31.9196 19.8176 31.9945 23.466C32.0694 27.1145 31.3755 30.7378 29.9579 34.1003C28.5403 37.4629 26.4307 40.4894 23.7664 42.983L22.3998 41.5227C24.8591 39.221 26.8064 36.4273 28.115 33.3234C29.4236 30.2195 30.0641 26.8749 29.9949 23.5071C29.9258 20.1394 29.1484 16.8239 27.7135 13.7763Z" fill="black"/>
<path fill-rule="evenodd" clip-rule="evenodd" d="M42 19H5.5V17H42V19Z" fill="black"/>
<path fill-rule="evenodd" clip-rule="evenodd" d="M42 31H5.5V29H42V31Z" fill="black"/>
<path fill-rule="evenodd" clip-rule="evenodd" d="M25.6013 5.59143C22.9464 7.81226 20.8032 10.5811 19.3189 13.708C17.8345 16.8349 17.0441 20.2459 17.0018 23.7069C16.9595 27.168 17.6664 30.5973 19.0739 33.7595C20.4814 36.9217 22.5563 39.7421 25.1562 42.0271L23.8358 43.5294C21.0193 41.0539 18.7715 37.9985 17.2467 34.5728C15.7219 31.147 14.9561 27.432 15.0019 23.6825C15.0477 19.933 15.904 16.2378 17.5121 12.8503C19.1201 9.46284 21.4419 6.46328 24.3181 4.05737L25.6013 5.59143Z" fill="black"/>
</svg>
