<svg width="48" height="48" viewBox="0 0 48 48" fill="none" xmlns="http://www.w3.org/2000/svg">
<path fill-rule="evenodd" clip-rule="evenodd" d="M13 34C10.7909 34 9 35.7909 9 38C9 40.2091 10.7909 42 13 42C15.2091 42 17 40.2091 17 38C17 35.7909 15.2091 34 13 34ZM7 38C7 34.6863 9.68629 32 13 32C16.3137 32 19 34.6863 19 38C19 41.3137 16.3137 44 13 44C9.68629 44 7 41.3137 7 38Z" fill="white"/>
<path fill-rule="evenodd" clip-rule="evenodd" d="M36 4.70703V32H34V8.29306L19 17.5578V38H17V16.4423L36 4.70703Z" fill="white"/>
<path fill-rule="evenodd" clip-rule="evenodd" d="M30 28C27.7909 28 26 29.7909 26 32C26 34.2091 27.7909 36 30 36C32.2091 36 34 34.2091 34 32C34 29.7909 32.2091 28 30 28ZM24 32C24 28.6863 26.6863 26 30 26C33.3137 26 36 28.6863 36 32C36 35.3137 33.3137 38 30 38C26.6863 38 24 35.3137 24 32Z" fill="white"/>
<path fill-rule="evenodd" clip-rule="evenodd" d="M35.5255 13.3508L18.5255 23.8508L17.4745 22.1492L34.4745 11.6492L35.5255 13.3508Z" fill="white"/>
</svg>
