<svg width="48" height="48" viewBox="0 0 48 48" fill="none" xmlns="http://www.w3.org/2000/svg">
<path fill-rule="evenodd" clip-rule="evenodd" d="M36 29.4647V21C36 14.3726 30.6274 9 24 9C21.5907 9 19.3473 9.71001 17.4675 10.9322L18.9199 12.3846C20.4087 11.5049 22.1454 11 24 11C29.5228 11 34 15.4772 34 21V27.4647L36 29.4647ZM15.3845 15.9202C14.5048 17.409 14 19.1455 14 21V31.4142L10 35.4142V36H35.4642L37.4642 38H8V34.5858L12 30.5858V21C12 18.5909 12.7099 16.3475 13.932 14.4678L15.3845 15.9202Z" fill="white"/>
<path fill-rule="evenodd" clip-rule="evenodd" d="M40.2928 41.7072L6.29285 7.70718L7.70706 6.29297L41.7071 40.293L40.2928 41.7072Z" fill="white"/>
<path d="M20 8C20 5.79086 21.7909 4 24 4C26.2091 4 28 5.79086 28 8V10H20V8Z" fill="white"/>
<path d="M28 40C28 40.5253 27.8965 41.0454 27.6955 41.5307C27.4945 42.016 27.1999 42.457 26.8284 42.8284C26.457 43.1999 26.016 43.4945 25.5307 43.6955C25.0454 43.8965 24.5253 44 24 44C23.4747 44 22.9546 43.8965 22.4693 43.6955C21.984 43.4945 21.543 43.1999 21.1716 42.8284C20.8001 42.457 20.5055 42.016 20.3045 41.5307C20.1035 41.0454 20 40.5253 20 40L24 40H28Z" fill="white"/>
</svg>
