<svg width="48" height="48" viewBox="0 0 48 48" fill="none" xmlns="http://www.w3.org/2000/svg">
<path fill-rule="evenodd" clip-rule="evenodd" d="M24 6C19.2261 6 14.6477 7.89642 11.2721 11.2721C7.89642 14.6477 6 19.2261 6 24C6 28.7739 7.89642 33.3523 11.2721 36.7279C14.6477 40.1036 19.2261 42 24 42C28.7739 42 33.3523 40.1036 36.7279 36.7279C40.1036 33.3523 42 28.7739 42 24C42 19.2261 40.1036 14.6477 36.7279 11.2721C33.3523 7.89642 28.7739 6 24 6ZM9.85787 9.85786C13.6086 6.10714 18.6957 4 24 4C29.3043 4 34.3914 6.10714 38.1421 9.85787C41.8929 13.6086 44 18.6957 44 24C44 29.3043 41.8929 34.3914 38.1421 38.1421C34.3914 41.8929 29.3043 44 24 44C18.6957 44 13.6086 41.8929 9.85786 38.1421C6.10714 34.3914 4 29.3043 4 24C4 18.6957 6.10714 13.6086 9.85787 9.85786Z" fill="black"/>
<path fill-rule="evenodd" clip-rule="evenodd" d="M22 19V15H26V19H22Z" fill="black"/>
<path fill-rule="evenodd" clip-rule="evenodd" d="M22 33V22H26V33H22Z" fill="black"/>
</svg>
