<svg width="48" height="48" viewBox="0 0 48 48" fill="none" xmlns="http://www.w3.org/2000/svg">
<path fill-rule="evenodd" clip-rule="evenodd" d="M20 8C13.3726 8 8 13.3726 8 20C8 26.6274 13.3726 32 20 32C26.6274 32 32 26.6274 32 20C32 13.3726 26.6274 8 20 8ZM6 20C6 12.268 12.268 6 20 6C27.732 6 34 12.268 34 20C34 27.732 27.732 34 20 34C12.268 34 6 27.732 6 20Z" fill="white"/>
<path fill-rule="evenodd" clip-rule="evenodd" d="M40.2929 41.7072L28.2929 29.7072L29.7071 28.293L41.7071 40.293L40.2929 41.7072Z" fill="white"/>
</svg>
