<svg width="24" height="24" viewBox="0 0 24 24" fill="none" xmlns="http://www.w3.org/2000/svg">
<path fill-rule="evenodd" clip-rule="evenodd" d="M9.50704 2.4178C9.54723 2.17671 9.75582 2 10.0002 2H14.0002C14.2447 2 14.4533 2.17671 14.4934 2.4178L14.9402 5.09828C15.5005 5.33725 16.0257 5.64235 16.5058 6.00368L19.0521 5.04975C19.281 4.964 19.5383 5.0563 19.6605 5.26797L21.6605 8.73208C21.7827 8.94375 21.734 9.21275 21.5453 9.3681L19.4463 11.0961C19.4819 11.3926 19.5002 11.6943 19.5002 12C19.5002 12.3058 19.4819 12.6075 19.4463 12.904L21.5453 14.632C21.734 14.7873 21.7827 15.0563 21.6605 15.268L19.6605 18.7321C19.5383 18.9437 19.281 19.036 19.0521 18.9503L16.5058 17.9964C16.0256 18.3577 15.5005 18.6628 14.9402 18.9017L14.4934 21.5822C14.4533 21.8233 14.2447 22 14.0002 22H10.0002C9.75582 22 9.54723 21.8233 9.50704 21.5822L9.0603 18.9017C8.49997 18.6628 7.97483 18.3576 7.49467 17.9963L4.94839 18.9502C4.7195 19.036 4.46217 18.9437 4.33996 18.732L2.33996 15.2679C2.21775 15.0563 2.26649 14.7872 2.45519 14.6319L4.55421 12.9039C4.51856 12.6074 4.50024 12.3057 4.50024 12C4.50024 11.6942 4.51857 11.3925 4.55421 11.096L2.45521 9.36805C2.26651 9.2127 2.21778 8.9437 2.33999 8.73203L4.33999 5.26792C4.4622 5.05625 4.71953 4.96396 4.94841 5.0497L7.49472 6.00364C7.97487 5.64233 8.49999 5.33724 9.0603 5.09828L9.50704 2.4178ZM10.4238 3L10.0006 5.53908C9.97143 5.71427 9.85148 5.86083 9.68553 5.92409C9.03296 6.17285 8.43049 6.52391 7.89779 6.9579C7.76 7.07016 7.57299 7.10083 7.40657 7.03849L4.99423 6.13474L3.41779 8.86521L5.40588 10.5019C5.54285 10.6146 5.60981 10.7915 5.58184 10.9667C5.52817 11.3029 5.50024 11.648 5.50024 12C5.50024 12.352 5.52817 12.697 5.58184 13.0332C5.6098 13.2084 5.54284 13.3853 5.40587 13.4981L3.41777 15.1347L4.99421 17.8652L7.40652 16.9615C7.57294 16.8991 7.75996 16.9298 7.89774 17.0421C8.43046 17.4761 9.03294 17.8271 9.68553 18.0759C9.85148 18.1392 9.97143 18.2857 10.0006 18.4609L10.4238 21H13.5767L13.9999 18.4609C14.0291 18.2857 14.149 18.1392 14.315 18.0759C14.9675 17.8272 15.57 17.4761 16.1027 17.0421C16.2405 16.9298 16.4275 16.8992 16.5939 16.9615L19.0063 17.8653L20.5827 15.1348L18.5946 13.4981C18.4576 13.3854 18.3907 13.2085 18.4186 13.0333C18.4723 12.6971 18.5002 12.352 18.5002 12C18.5002 11.648 18.4723 11.303 18.4186 10.9668C18.3907 10.7916 18.4576 10.6147 18.5946 10.5019L20.5827 8.86526L19.0063 6.13479L16.594 7.03852C16.4275 7.10087 16.2405 7.07019 16.1027 6.95794C15.57 6.52393 14.9675 6.17286 14.315 5.92409C14.149 5.86083 14.0291 5.71427 13.9999 5.53908L13.5767 3H10.4238Z" fill="white"/>
<path fill-rule="evenodd" clip-rule="evenodd" d="M12 9.5C10.6193 9.5 9.5 10.6193 9.5 12C9.5 13.3807 10.6193 14.5 12 14.5C13.3807 14.5 14.5 13.3807 14.5 12C14.5 10.6193 13.3807 9.5 12 9.5ZM8.5 12C8.5 10.067 10.067 8.5 12 8.5C13.933 8.5 15.5 10.067 15.5 12C15.5 13.933 13.933 15.5 12 15.5C10.067 15.5 8.5 13.933 8.5 12Z" fill="white"/>
</svg>
