<svg width="28" height="27" viewBox="0 0 28 27" fill="none" xmlns="http://www.w3.org/2000/svg">
<path fill-rule="evenodd" clip-rule="evenodd" d="M5.79216 13.2903C4.84539 11.6504 5.40725 9.55354 7.04711 8.60676L15.2125 3.89248C16.8523 2.9457 18.9492 3.50756 19.896 5.14742C20.8428 6.78728 20.2809 8.88416 18.6411 9.83094L17.1637 10.6839C18.8025 9.74296 20.8946 10.3056 21.84 11.943C22.7867 13.5829 22.2249 15.6798 20.585 16.6265L12.4196 21.3408C10.7798 22.2876 8.68289 21.7257 7.73611 20.0859C6.78934 18.446 7.3512 16.3491 8.99106 15.4024L10.4684 14.5494C8.82964 15.4903 6.73754 14.9277 5.79216 13.2903ZM12.926 10.5654C12.5927 10.373 12.176 10.6136 12.176 10.9985L12.176 14.5531C12.176 14.938 12.5927 15.1785 12.926 14.9861L16.0044 13.2088C16.3377 13.0163 16.3377 12.5352 16.0044 12.3427L12.926 10.5654Z" fill="#FF0000"/>
</svg>
