<svg width="48" height="48" viewBox="0 0 48 48" fill="none" xmlns="http://www.w3.org/2000/svg">
<path fill-rule="evenodd" clip-rule="evenodd" d="M12.1113 14.4913C8.28491 16.7005 6.97391 21.5932 9.18305 25.4195C9.93185 26.7165 10.9897 27.7247 12.2091 28.4045L11.6113 28.7497C7.78495 30.9588 6.47395 35.8516 8.68309 39.6779C10.8922 43.5042 15.7849 44.8152 19.6113 42.6061L35.1997 33.6061C39.0261 31.397 40.3371 26.5042 38.128 22.6779C37.3792 21.3809 36.3213 20.3728 35.1019 19.6929L35.6997 19.3478C39.5261 17.1386 40.8371 12.2459 38.6279 8.41955C36.4188 4.59321 31.5261 3.28221 27.6997 5.49135L12.1113 14.4913ZM21 29.1961L30 24L21 18.8038L21 29.1961Z" fill="white"/>
</svg>
