<svg width="48" height="48" viewBox="0 0 48 48" fill="none" xmlns="http://www.w3.org/2000/svg">
<g clip-path="url(#clip0_120_686)">
<path fill-rule="evenodd" clip-rule="evenodd" d="M13.1112 16.2237C10.2414 17.8805 9.25819 21.5501 10.915 24.4198C11.7764 25.9117 13.1798 26.8932 14.7356 27.26C15.1346 27.3541 15.4358 27.6822 15.4954 28.0878C15.5551 28.4934 15.3611 28.8944 15.0061 29.0994L12.6112 30.482C9.74148 32.1389 8.75823 35.8084 10.4151 38.6782C12.0719 41.5479 15.7415 42.5312 18.6112 40.8743L34.1997 31.8743C37.0694 30.2175 38.0527 26.5479 36.3958 23.6782C35.5345 22.1864 34.1311 21.2048 32.5753 20.838C32.1763 20.7439 31.8751 20.4158 31.8154 20.0102C31.7558 19.6046 31.9498 19.2036 32.3048 18.9986L34.6997 17.616C37.5694 15.9591 38.5527 12.2896 36.8958 9.41983C35.239 6.55007 31.5694 5.56682 28.6997 7.22368L13.1112 16.2237ZM9.18299 25.4198C6.97385 21.5935 8.28486 16.7008 12.1112 14.4916L27.6997 5.49163C31.526 3.28249 36.4187 4.59349 38.6279 8.41983C40.837 12.2462 39.526 17.1389 35.6997 19.348L35.1018 19.6932C36.3212 20.3731 37.3791 21.3812 38.1279 22.6782C40.337 26.5045 39.026 31.3972 35.1997 33.6064L19.6112 42.6064C15.7849 44.8155 10.8922 43.5045 8.68303 39.6782C6.47389 35.8518 7.78489 30.9591 11.6112 28.75L12.2091 28.4048C10.9897 27.7249 9.93179 26.7168 9.18299 25.4198Z" fill="white"/>
<path d="M30 24.0001L21 29.1963L21 18.804L30 24.0001Z" fill="white"/>
</g>
<defs>
<clipPath id="clip0_120_686">
<rect width="48" height="48" fill="white"/>
</clipPath>
</defs>
</svg>
